<svg xmlns="http://www.w3.org/2000/svg" version="1.1" xmlns:xlink="http://www.w3.org/1999/xlink" xmlns:svgjs="http://svgjs.com/svgjs" width="970px" height="969px"><svg xmlns="http://www.w3.org/2000/svg" version="1.1" width="970px" height="969px" style="shape-rendering:geometricPrecision; text-rendering:geometricPrecision; image-rendering:optimizeQuality; fill-rule:evenodd; clip-rule:evenodd" xmlns:xlink="http://www.w3.org/1999/xlink">
    <g>
        <path style="opacity:0.987" fill="#000000" d="M 452.5,-0.5 C 473.5,-0.5 494.5,-0.5 515.5,-0.5C 666.903,12.9304 787.737,80.2637 878,201.5C 958.67,319.179 984.67,448.179 956,588.5C 923.776,720.99 850.276,823.49 735.5,896C 613.731,966.847 484.731,983.847 348.5,947C 211.47,904.293 110.97,818.793 47,690.5C -7.84079,569.706 -14.1741,446.373 28,320.5C 68.2801,211.231 138.113,126.397 237.5,66C 304.114,27.2669 375.781,5.10028 452.5,-0.5 Z M 465.5,45.5 C 614.322,43.5081 735.489,99.8414 829,214.5C 858.206,251.904 880.373,293.237 895.5,338.5C 863.245,341.884 831.578,348.218 800.5,357.5C 749.061,239.915 660.061,169.748 533.5,147C 509.454,129.473 483.454,115.306 455.5,104.5C 454.479,105.002 454.312,105.668 455,106.5C 463.778,117.223 471.944,128.39 479.5,140C 460.842,132.671 441.675,126.504 422,121.5C 421.5,121.667 421,121.833 420.5,122C 428.383,129.381 435.717,137.214 442.5,145.5C 332.835,161.868 249.002,216.868 191,310.5C 182.624,325.919 174.791,341.586 167.5,357.5C 136.422,348.218 104.755,341.884 72.5,338.5C 89.9815,286.517 116.482,239.851 152,198.5C 235.235,104.636 339.735,53.6356 465.5,45.5 Z M 344.5,330.5 C 399.679,328.02 446.179,346.687 484,386.5C 531.934,337.194 589.434,320.694 656.5,337C 719.758,357.59 759.591,400.09 776,464.5C 788.412,543.014 761.579,603.847 695.5,647C 681.333,655.087 666.333,660.921 650.5,664.5C 658.88,709.193 651.213,750.86 627.5,789.5C 627.833,789.833 628.167,790.167 628.5,790.5C 706.597,752.736 762.93,694.07 797.5,614.5C 818.02,610.074 837.353,602.574 855.5,592C 877.399,578.112 897.566,561.945 916,543.5C 896.915,665.547 838.081,763.381 739.5,837C 627.574,914.492 505.241,937.158 372.5,905C 244.863,868.676 151.03,791.509 91,673.5C 70.9148,632.248 57.9148,588.915 52,543.5C 77.7309,570.235 107.564,591.068 141.5,606C 151.113,609.15 160.78,611.984 170.5,614.5C 204.795,693.296 260.461,751.796 337.5,790C 338.635,790.749 339.635,790.583 340.5,789.5C 316.781,750.857 309.114,709.19 317.5,664.5C 254.214,647.382 213.047,607.382 194,544.5C 178.707,477.393 195.874,420.226 245.5,373C 274.034,348.433 307.034,334.266 344.5,330.5 Z"></path>
    </g>
    <g>
        <path style="opacity:0.99" fill="#000000" d="M 255.5,469.5 C 319.5,469.5 383.5,469.5 447.5,469.5C 446.09,510.396 427.09,539.896 390.5,558C 352.464,572.33 317.797,566.663 286.5,541C 266.201,521.562 255.868,497.728 255.5,469.5 Z"></path>
    </g>
    <g>
        <path style="opacity:0.99" fill="#000000" d="M 524.5,469.5 C 588.833,469.5 653.167,469.5 717.5,469.5C 715.13,512.77 694.13,542.936 654.5,560C 609.082,573.635 571.582,562.135 542,525.5C 530.644,508.596 524.81,489.929 524.5,469.5 Z"></path>
    </g>
    <g>
        <path style="opacity:0.98" fill="#000000" d="M 432.5,618.5 C 466.835,618.333 501.168,618.5 535.5,619C 554.589,624.343 560.422,636.177 553,654.5C 550.079,658.092 546.579,660.925 542.5,663C 534.644,664.992 526.644,665.992 518.5,666C 514.333,667.5 511.5,670.333 510,674.5C 508.869,696.628 497.369,705.795 475.5,702C 463.272,697.07 457.439,687.904 458,674.5C 456.5,670.333 453.667,667.5 449.5,666C 441.356,665.992 433.356,664.992 425.5,663C 411.537,655.112 408.037,643.946 415,629.5C 419.578,623.638 425.411,619.972 432.5,618.5 Z"></path>
    </g>
</svg><style>@media (prefers-color-scheme: light) { :root { filter: none; } }
</style></svg>